<?xml version="1.0" encoding="utf-8"?>
<svg viewBox="0 0 46.73 11.2" xmlns="http://www.w3.org/2000/svg">
  <defs>
    <style>.cls-1{fill:#2042e3;}.cls-2{fill:#081828;}.cls-3{fill:#fff;}</style>
  </defs>
  <path class="cls-1" d="M18.07,11.47H3A2.48,2.48,0,0,1,.47,9V2.77A2.48,2.48,0,0,1,3,.27H25l-2.7,8.2A4.42,4.42,0,0,1,18.07,11.47Z" transform="matrix(1, 0, 0, 1, -0.4700000286102304, -0.27000001072883695)"/>
  <path class="cls-2" d="M44.71,11.47h-22l2.7-8.2a4.42,4.42,0,0,1,4.2-3h15.1a2.48,2.48,0,0,1,2.5,2.5v6.3A2.46,2.46,0,0,1,44.71,11.47Z" transform="matrix(1, 0, 0, 1, -0.4700000286102304, -0.27000001072883695)"/>
  <path d="M 8.36 2.87 L 9.06 2.87 L 9.06 7.77 L 8.36 7.77 Z M 5.54 7.77 L 4.84 7.77 L 4.84 2.87 L 5.54 2.87 Z M 8.42 5.58 L 5.47 5.58 L 5.47 4.97 L 8.42 4.97 Z M 10.05 7.77 L 10.05 4.06 L 10.72 4.06 L 10.72 7.77 Z M 10.39 3.34 Q 10.19 3.34 10.06 3.22 Q 9.93 3.09 9.93 2.91 Q 9.93 2.72 10.06 2.59 Q 10.19 2.47 10.39 2.47 Q 10.58 2.47 10.71 2.59 Q 10.84 2.71 10.84 2.89 Q 10.84 3.08 10.72 3.21 Q 10.59 3.34 10.39 3.34 Z M 11.82 7.77 L 11.82 4.06 L 12.46 4.06 L 12.46 5.06 L 12.4 4.81 Q 12.55 4.43 12.92 4.22 Q 13.28 4.02 13.81 4.02 L 13.81 4.67 Q 13.77 4.66 13.73 4.66 Q 13.69 4.66 13.66 4.66 Q 13.12 4.66 12.81 4.99 Q 12.49 5.31 12.49 5.92 L 12.49 7.77 Z M 16.42 7.81 Q 15.82 7.81 15.37 7.56 Q 14.92 7.32 14.67 6.89 Q 14.42 6.46 14.42 5.91 Q 14.42 5.36 14.66 4.93 Q 14.91 4.5 15.33 4.26 Q 15.75 4.02 16.29 4.02 Q 16.82 4.02 17.24 4.26 Q 17.65 4.5 17.88 4.93 Q 18.12 5.36 18.12 5.93 Q 18.12 5.97 18.12 6.03 Q 18.11 6.09 18.11 6.13 L 14.95 6.13 L 14.95 5.65 L 17.76 5.65 L 17.48 5.82 Q 17.49 5.46 17.34 5.18 Q 17.18 4.9 16.91 4.74 Q 16.64 4.59 16.29 4.59 Q 15.94 4.59 15.66 4.74 Q 15.39 4.9 15.24 5.19 Q 15.08 5.47 15.08 5.83 L 15.08 5.95 Q 15.08 6.32 15.25 6.61 Q 15.42 6.9 15.73 7.06 Q 16.04 7.22 16.44 7.22 Q 16.77 7.22 17.04 7.11 Q 17.31 7 17.51 6.77 L 17.88 7.21 Q 17.63 7.5 17.25 7.65 Q 16.88 7.81 16.42 7.81 Z" style="fill: rgb(255, 255, 255);"/>
  <path d="M 31.19 8.07 Q 30.63 8.07 30.32 7.77 Q 30.01 7.47 30.01 6.91 L 30.01 3.51 L 30.68 3.51 L 30.68 6.88 Q 30.68 7.18 30.84 7.34 Q 30.99 7.5 31.27 7.5 Q 31.58 7.5 31.79 7.33 L 32 7.81 Q 31.85 7.94 31.63 8.01 Q 31.42 8.07 31.19 8.07 Z M 29.38 4.87 L 29.38 4.32 L 31.75 4.32 L 31.75 4.87 Z M 33.86 8.07 Q 33.31 8.07 32.87 7.82 Q 32.43 7.58 32.18 7.15 Q 31.93 6.72 31.93 6.17 Q 31.93 5.62 32.18 5.19 Q 32.44 4.77 32.87 4.53 Q 33.3 4.28 33.86 4.28 Q 34.41 4.28 34.85 4.53 Q 35.29 4.77 35.54 5.19 Q 35.79 5.62 35.79 6.18 Q 35.79 6.73 35.54 7.15 Q 35.29 7.58 34.85 7.82 Q 34.41 8.07 33.86 8.07 Z M 33.86 7.48 Q 34.22 7.48 34.5 7.32 Q 34.79 7.16 34.95 6.86 Q 35.11 6.56 35.11 6.17 Q 35.11 5.77 34.95 5.48 Q 34.79 5.19 34.5 5.03 Q 34.22 4.87 33.86 4.87 Q 33.5 4.87 33.22 5.03 Q 32.94 5.19 32.78 5.48 Q 32.61 5.77 32.61 6.17 Q 32.61 6.56 32.78 6.86 Q 32.94 7.16 33.23 7.32 Q 33.51 7.48 33.86 7.48 Z M 38.37 8.07 Q 37.9 8.07 37.52 7.86 Q 37.14 7.64 36.91 7.22 Q 36.69 6.8 36.69 6.17 Q 36.69 5.54 36.91 5.12 Q 37.13 4.7 37.51 4.49 Q 37.89 4.28 38.37 4.28 Q 38.91 4.28 39.33 4.52 Q 39.75 4.76 40 5.18 Q 40.24 5.61 40.24 6.17 Q 40.24 6.74 40 7.17 Q 39.75 7.59 39.33 7.83 Q 38.91 8.07 38.37 8.07 Z M 36.4 9.39 L 36.4 4.32 L 37.04 4.32 L 37.04 5.32 L 37 6.18 L 37.07 7.04 L 37.07 9.39 Z M 38.31 7.48 Q 38.67 7.48 38.95 7.32 Q 39.23 7.16 39.4 6.86 Q 39.56 6.56 39.56 6.17 Q 39.56 5.77 39.4 5.48 Q 39.23 5.19 38.95 5.03 Q 38.67 4.87 38.31 4.87 Q 37.96 4.87 37.68 5.03 Q 37.39 5.19 37.23 5.48 Q 37.06 5.77 37.06 6.17 Q 37.06 6.56 37.23 6.86 Q 37.39 7.16 37.68 7.32 Q 37.96 7.48 38.31 7.48 Z" style="fill: rgb(255, 255, 255);"/>
</svg>